<svg preserveAspectRatio="xMinYMin meet" viewBox="0 0 273.969 537.727" width="100%" height="100%" version="1.1" xmlns="http://www.w3.org/2000/svg" xmlns:xlink="http://www.w3.org/1999/xlink" x="0px" y="0px" enable-background="new 0 0 273.969 537.727"
	 xml:space="preserve">
<g id="Layer_2">
</g>
<g id="Layer_1">
	<g>
		
			<rect x="4.012" y="39.264" fill="none" stroke="#00AEEF" stroke-width="2.6884" stroke-miterlimit="10" width="265.946" height="459.689"/>
		<linearGradient id="SVGID_1_" gradientUnits="userSpaceOnUse" x1="4.0117" y1="269.1094" x2="269.9575" y2="269.1094">
			<stop  offset="0" style="stop-color:#F6F6F6"/>
			<stop  offset="0.6479" style="stop-color:#EDEEEE"/>
			<stop  offset="1" style="stop-color:#E6E7E8"/>
		</linearGradient>
		<path fill="url(#SVGID_1_)" d="M239.504,4.501c-18.652,0-90.559,0-102.52,0c-11.96,0-83.865,0-102.52,0
			c-25.682,0-30.453,13.438-30.453,34.763v459.689c0,21.324,4.771,34.764,30.453,34.764c18.654,0,90.56,0,102.52,0
			c11.961,0,83.868,0,102.52,0c25.682,0,30.453-13.439,30.453-34.764V39.264C269.958,17.939,265.186,4.501,239.504,4.501z"/>
		<g>
			<linearGradient id="SVGID_2_" gradientUnits="userSpaceOnUse" x1="0" y1="19.877" x2="273.9692" y2="19.877">
				<stop  offset="0" style="stop-color:#F1F2F2"/>
				<stop  offset="0.0076" style="stop-color:#E2E3E4"/>
				<stop  offset="0.0201" style="stop-color:#D0D2D4"/>
				<stop  offset="0.0349" style="stop-color:#C2C4C6"/>
				<stop  offset="0.0532" style="stop-color:#B9BABD"/>
				<stop  offset="0.0788" style="stop-color:#B3B5B7"/>
				<stop  offset="0.15" style="stop-color:#B1B3B6"/>
				<stop  offset="0.25" style="stop-color:#DADBDC"/>
				<stop  offset="0.5" style="stop-color:#F1F2F2"/>
				<stop  offset="0.75" style="stop-color:#DADBDC"/>
				<stop  offset="0.85" style="stop-color:#B1B3B6"/>
				<stop  offset="0.9212" style="stop-color:#B3B5B7"/>
				<stop  offset="0.9468" style="stop-color:#B9BABD"/>
				<stop  offset="0.9651" style="stop-color:#C2C4C6"/>
				<stop  offset="0.9799" style="stop-color:#D0D2D4"/>
				<stop  offset="0.9924" style="stop-color:#E2E3E4"/>
				<stop  offset="1" style="stop-color:#F1F2F2"/>
			</linearGradient>
			<path fill="url(#SVGID_2_)" d="M267.6,11.519C262.176,4.098,252.987,0.49,239.504,0.49H34.465
				c-13.481,0-22.673,3.608-28.096,11.029C1.905,17.627,0,25.925,0,39.264l0,0h4.012c0-21.325,4.771-34.763,30.453-34.763
				c18.654,0,90.56,0,102.52,0c11.961,0,83.868,0,102.52,0c25.682,0,30.453,13.438,30.453,34.763h4.012l0,0
				C273.969,25.925,272.065,17.627,267.6,11.519z"/>
			<linearGradient id="SVGID_3_" gradientUnits="userSpaceOnUse" x1="0" y1="518.3398" x2="273.9692" y2="518.3398">
				<stop  offset="0" style="stop-color:#F1F2F2"/>
				<stop  offset="0.0076" style="stop-color:#E2E3E4"/>
				<stop  offset="0.0201" style="stop-color:#D0D2D4"/>
				<stop  offset="0.0349" style="stop-color:#C2C4C6"/>
				<stop  offset="0.0532" style="stop-color:#B9BABD"/>
				<stop  offset="0.0788" style="stop-color:#B3B5B7"/>
				<stop  offset="0.15" style="stop-color:#B1B3B6"/>
				<stop  offset="0.25" style="stop-color:#DADBDC"/>
				<stop  offset="0.5" style="stop-color:#F1F2F2"/>
				<stop  offset="0.75" style="stop-color:#DADBDC"/>
				<stop  offset="0.85" style="stop-color:#B1B3B6"/>
				<stop  offset="0.9212" style="stop-color:#B3B5B7"/>
				<stop  offset="0.9468" style="stop-color:#B9BABD"/>
				<stop  offset="0.9651" style="stop-color:#C2C4C6"/>
				<stop  offset="0.9799" style="stop-color:#D0D2D4"/>
				<stop  offset="0.9924" style="stop-color:#E2E3E4"/>
				<stop  offset="1" style="stop-color:#F1F2F2"/>
			</linearGradient>
			<path fill="url(#SVGID_3_)" d="M239.504,533.717c-18.652,0-90.559,0-102.52,0c-11.96,0-83.865,0-102.52,0
				c-25.682,0-30.453-13.439-30.453-34.764H0c0,13.34,1.905,21.637,6.369,27.744c5.423,7.424,14.614,11.029,28.096,11.029h205.04
				c13.482,0,22.672-3.605,28.096-11.029c4.465-6.107,6.369-14.404,6.369-27.744h-4.012
				C269.958,520.277,265.186,533.717,239.504,533.717z"/>
			<linearGradient id="SVGID_4_" gradientUnits="userSpaceOnUse" x1="271.9634" y1="498.9531" x2="271.9633" y2="39.2646">
				<stop  offset="0" style="stop-color:#E6E7E8"/>
				<stop  offset="0.0031" style="stop-color:#E1E2E3"/>
				<stop  offset="0.0258" style="stop-color:#BFC1C3"/>
				<stop  offset="0.0513" style="stop-color:#A0A2A5"/>
				<stop  offset="0.0791" style="stop-color:#888A8C"/>
				<stop  offset="0.1098" style="stop-color:#747578"/>
				<stop  offset="0.1444" style="stop-color:#626366"/>
				<stop  offset="0.1849" style="stop-color:#545456"/>
				<stop  offset="0.2349" style="stop-color:#49494B"/>
				<stop  offset="0.3051" style="stop-color:#424244"/>
				<stop  offset="0.5" style="stop-color:#414042"/>
				<stop  offset="0.6949" style="stop-color:#424244"/>
				<stop  offset="0.7651" style="stop-color:#49494B"/>
				<stop  offset="0.8151" style="stop-color:#545456"/>
				<stop  offset="0.8556" style="stop-color:#626366"/>
				<stop  offset="0.8902" style="stop-color:#747578"/>
				<stop  offset="0.9209" style="stop-color:#888A8C"/>
				<stop  offset="0.9487" style="stop-color:#A0A2A5"/>
				<stop  offset="0.9742" style="stop-color:#BFC1C3"/>
				<stop  offset="0.9969" style="stop-color:#E1E2E3"/>
				<stop  offset="1" style="stop-color:#E6E7E8"/>
			</linearGradient>
			<rect x="269.958" y="39.264" fill="url(#SVGID_4_)" width="4.012" height="459.689"/>
			<linearGradient id="SVGID_5_" gradientUnits="userSpaceOnUse" x1="2.0059" y1="498.9531" x2="2.0058" y2="39.2646">
				<stop  offset="0" style="stop-color:#E6E7E8"/>
				<stop  offset="0.0031" style="stop-color:#E1E2E3"/>
				<stop  offset="0.0258" style="stop-color:#BFC1C3"/>
				<stop  offset="0.0513" style="stop-color:#A0A2A5"/>
				<stop  offset="0.0791" style="stop-color:#888A8C"/>
				<stop  offset="0.1098" style="stop-color:#747578"/>
				<stop  offset="0.1444" style="stop-color:#626366"/>
				<stop  offset="0.1849" style="stop-color:#545456"/>
				<stop  offset="0.2349" style="stop-color:#49494B"/>
				<stop  offset="0.3051" style="stop-color:#424244"/>
				<stop  offset="0.5" style="stop-color:#414042"/>
				<stop  offset="0.6949" style="stop-color:#424244"/>
				<stop  offset="0.7651" style="stop-color:#49494B"/>
				<stop  offset="0.8151" style="stop-color:#545456"/>
				<stop  offset="0.8556" style="stop-color:#626366"/>
				<stop  offset="0.8902" style="stop-color:#747578"/>
				<stop  offset="0.9209" style="stop-color:#888A8C"/>
				<stop  offset="0.9487" style="stop-color:#A0A2A5"/>
				<stop  offset="0.9742" style="stop-color:#BFC1C3"/>
				<stop  offset="0.9969" style="stop-color:#E1E2E3"/>
				<stop  offset="1" style="stop-color:#E6E7E8"/>
			</linearGradient>
			<rect y="39.264" fill="url(#SVGID_5_)" width="4.012" height="459.689"/>
		</g>
		<linearGradient id="SVGID_6_" gradientUnits="userSpaceOnUse" x1="4.0117" y1="21.8828" x2="269.9575" y2="21.8828">
			<stop  offset="0" style="stop-color:#F6F6F6"/>
			<stop  offset="0.6479" style="stop-color:#EDEEEE"/>
			<stop  offset="1" style="stop-color:#E6E7E8"/>
		</linearGradient>
		<path fill="url(#SVGID_6_)" d="M136.984,4.501c11.961,0,83.868,0,102.52,0c25.682,0,30.453,13.438,30.453,34.763H4.012
			c0-21.325,4.771-34.763,30.453-34.763C53.119,4.501,125.024,4.501,136.984,4.501"/>
		<g>
			<g>
				<circle cx="66.249" cy="20.346" r="0.802"/>
				<circle cx="69.324" cy="20.346" r="0.802"/>
				<circle cx="72.4" cy="20.346" r="0.802"/>
				<circle cx="75.475" cy="20.346" r="0.802"/>
				<circle cx="78.551" cy="20.346" r="0.802"/>
				<circle cx="81.626" cy="20.346" r="0.803"/>
				<circle cx="84.702" cy="20.346" r="0.802"/>
				<circle cx="87.777" cy="20.346" r="0.802"/>
				<circle cx="90.853" cy="20.346" r="0.802"/>
				<circle cx="93.928" cy="20.346" r="0.803"/>
				<circle cx="97.003" cy="20.346" r="0.802"/>
				<circle cx="100.079" cy="20.346" r="0.802"/>
				<circle cx="103.155" cy="20.346" r="0.802"/>
				<circle cx="106.23" cy="20.346" r="0.802"/>
				<circle cx="109.305" cy="20.346" r="0.802"/>
				<circle cx="112.381" cy="20.346" r="0.803"/>
				<circle cx="115.457" cy="20.346" r="0.802"/>
				<circle cx="118.532" cy="20.346" r="0.802"/>
				<circle cx="121.607" cy="20.346" r="0.803"/>
				<circle cx="124.683" cy="20.346" r="0.802"/>
				<circle cx="127.758" cy="20.346" r="0.802"/>
				<circle cx="130.834" cy="20.346" r="0.802"/>
				<circle cx="133.91" cy="20.346" r="0.802"/>
				<circle cx="136.985" cy="20.346" r="0.802"/>
				<circle cx="140.06" cy="20.346" r="0.802"/>
				<circle cx="143.136" cy="20.346" r="0.802"/>
				<circle cx="146.211" cy="20.346" r="0.803"/>
				<circle cx="149.287" cy="20.346" r="0.802"/>
				<circle cx="152.362" cy="20.346" r="0.803"/>
				<circle cx="155.438" cy="20.346" r="0.803"/>
				<circle cx="158.514" cy="20.346" r="0.803"/>
				<circle cx="161.589" cy="20.346" r="0.802"/>
				<circle cx="164.665" cy="20.346" r="0.803"/>
				<circle cx="167.74" cy="20.346" r="0.802"/>
				<circle cx="170.816" cy="20.346" r="0.802"/>
				<circle cx="173.89" cy="20.346" r="0.802"/>
				<circle cx="176.966" cy="20.346" r="0.802"/>
				<circle cx="180.042" cy="20.346" r="0.803"/>
				<circle cx="183.117" cy="20.346" r="0.802"/>
				<circle cx="186.192" cy="20.346" r="0.803"/>
				<circle cx="189.268" cy="20.346" r="0.803"/>
				<circle cx="192.344" cy="20.346" r="0.803"/>
				<circle cx="195.419" cy="20.346" r="0.802"/>
				<circle cx="198.494" cy="20.346" r="0.802"/>
				<circle cx="201.57" cy="20.346" r="0.802"/>
				<circle cx="204.645" cy="20.346" r="0.803"/>
				<circle cx="207.721" cy="20.346" r="0.803"/>
			</g>
			<g>
				<circle cx="66.249" cy="23.756" r="0.802"/>
				<circle cx="69.324" cy="23.756" r="0.802"/>
				<circle cx="72.4" cy="23.756" r="0.802"/>
				<circle cx="75.475" cy="23.756" r="0.802"/>
				<circle cx="78.551" cy="23.756" r="0.802"/>
				<circle cx="81.626" cy="23.756" r="0.803"/>
				<circle cx="84.702" cy="23.756" r="0.802"/>
				<circle cx="87.777" cy="23.756" r="0.802"/>
				<circle cx="90.853" cy="23.756" r="0.802"/>
				<circle cx="93.928" cy="23.756" r="0.803"/>
				<circle cx="97.003" cy="23.756" r="0.802"/>
				<circle cx="100.079" cy="23.756" r="0.802"/>
				<circle cx="103.155" cy="23.756" r="0.802"/>
				<circle cx="106.23" cy="23.756" r="0.802"/>
				<circle cx="109.305" cy="23.756" r="0.802"/>
				<circle cx="112.381" cy="23.756" r="0.803"/>
				<circle cx="115.457" cy="23.756" r="0.802"/>
				<circle cx="118.532" cy="23.756" r="0.802"/>
				<circle cx="121.607" cy="23.756" r="0.803"/>
				<circle cx="124.683" cy="23.756" r="0.802"/>
				<circle cx="127.758" cy="23.756" r="0.802"/>
				<circle cx="130.834" cy="23.756" r="0.802"/>
				<circle cx="133.91" cy="23.756" r="0.802"/>
				<circle cx="136.985" cy="23.756" r="0.802"/>
				<circle cx="140.06" cy="23.756" r="0.802"/>
				<circle cx="143.136" cy="23.756" r="0.802"/>
				<circle cx="146.211" cy="23.756" r="0.803"/>
				<circle cx="149.287" cy="23.756" r="0.802"/>
				<circle cx="152.362" cy="23.756" r="0.803"/>
				<circle cx="155.438" cy="23.756" r="0.803"/>
				<circle cx="158.514" cy="23.756" r="0.803"/>
				<circle cx="161.589" cy="23.756" r="0.802"/>
				<circle cx="164.665" cy="23.756" r="0.803"/>
				<circle cx="167.74" cy="23.756" r="0.802"/>
				<circle cx="170.816" cy="23.756" r="0.802"/>
				<circle cx="173.89" cy="23.756" r="0.802"/>
				<circle cx="176.966" cy="23.756" r="0.802"/>
				<circle cx="180.042" cy="23.756" r="0.803"/>
				<circle cx="183.117" cy="23.756" r="0.802"/>
				<circle cx="186.192" cy="23.756" r="0.803"/>
				<circle cx="189.268" cy="23.756" r="0.803"/>
				<circle cx="192.344" cy="23.756" r="0.803"/>
				<circle cx="195.419" cy="23.756" r="0.802"/>
				<circle cx="198.494" cy="23.756" r="0.802"/>
				<circle cx="201.57" cy="23.756" r="0.802"/>
				<circle cx="204.645" cy="23.756" r="0.803"/>
				<circle cx="207.721" cy="23.756" r="0.803"/>
			</g>
			<g>
				<circle cx="66.249" cy="27.166" r="0.802"/>
				<circle cx="69.324" cy="27.166" r="0.802"/>
				<circle cx="72.4" cy="27.166" r="0.802"/>
				<circle cx="75.475" cy="27.166" r="0.802"/>
				<circle cx="78.551" cy="27.166" r="0.802"/>
				<circle cx="81.626" cy="27.166" r="0.803"/>
				<circle cx="84.702" cy="27.166" r="0.802"/>
				<circle cx="87.777" cy="27.166" r="0.802"/>
				<circle cx="90.853" cy="27.166" r="0.802"/>
				<circle cx="93.928" cy="27.166" r="0.803"/>
				<circle cx="97.003" cy="27.166" r="0.802"/>
				<circle cx="100.079" cy="27.166" r="0.802"/>
				<circle cx="103.155" cy="27.166" r="0.802"/>
				<circle cx="106.23" cy="27.166" r="0.802"/>
				<circle cx="109.305" cy="27.166" r="0.802"/>
				<circle cx="112.381" cy="27.166" r="0.803"/>
				<circle cx="115.457" cy="27.166" r="0.802"/>
				<circle cx="118.532" cy="27.166" r="0.802"/>
				<circle cx="121.607" cy="27.166" r="0.803"/>
				<circle cx="124.683" cy="27.166" r="0.802"/>
				<circle cx="127.758" cy="27.166" r="0.802"/>
				<circle cx="130.834" cy="27.166" r="0.802"/>
				<circle cx="133.91" cy="27.166" r="0.802"/>
				<circle cx="136.985" cy="27.166" r="0.802"/>
				<circle cx="140.06" cy="27.166" r="0.802"/>
				<circle cx="143.136" cy="27.166" r="0.802"/>
				<circle cx="146.211" cy="27.166" r="0.803"/>
				<circle cx="149.287" cy="27.166" r="0.802"/>
				<circle cx="152.362" cy="27.166" r="0.803"/>
				<circle cx="155.438" cy="27.166" r="0.803"/>
				<circle cx="158.514" cy="27.166" r="0.803"/>
				<circle cx="161.589" cy="27.166" r="0.802"/>
				<circle cx="164.665" cy="27.166" r="0.803"/>
				<circle cx="167.74" cy="27.166" r="0.802"/>
				<circle cx="170.816" cy="27.166" r="0.802"/>
				<circle cx="173.89" cy="27.166" r="0.802"/>
				<circle cx="176.966" cy="27.166" r="0.802"/>
				<circle cx="180.042" cy="27.166" r="0.803"/>
				<circle cx="183.117" cy="27.166" r="0.802"/>
				<circle cx="186.192" cy="27.166" r="0.803"/>
				<circle cx="189.268" cy="27.166" r="0.803"/>
				<circle cx="192.344" cy="27.166" r="0.803"/>
				<circle cx="195.419" cy="27.166" r="0.802"/>
				<circle cx="198.494" cy="27.166" r="0.802"/>
				<circle cx="201.57" cy="27.166" r="0.802"/>
				<circle cx="204.645" cy="27.166" r="0.803"/>
				<circle cx="207.721" cy="27.166" r="0.803"/>
			</g>
			<g>
				<circle cx="66.249" cy="30.576" r="0.802"/>
				<circle cx="69.324" cy="30.576" r="0.802"/>
				<circle cx="72.4" cy="30.576" r="0.802"/>
				<circle cx="75.475" cy="30.576" r="0.802"/>
				<circle cx="78.551" cy="30.576" r="0.802"/>
				<circle cx="81.626" cy="30.576" r="0.803"/>
				<circle cx="84.702" cy="30.576" r="0.802"/>
				<circle cx="87.777" cy="30.576" r="0.802"/>
				<circle cx="90.853" cy="30.576" r="0.802"/>
				<circle cx="93.928" cy="30.576" r="0.803"/>
				<circle cx="97.003" cy="30.576" r="0.802"/>
				<circle cx="100.079" cy="30.576" r="0.802"/>
				<circle cx="103.155" cy="30.576" r="0.802"/>
				<circle cx="106.23" cy="30.576" r="0.802"/>
				<circle cx="109.305" cy="30.576" r="0.802"/>
				<circle cx="112.381" cy="30.576" r="0.803"/>
				<circle cx="115.457" cy="30.576" r="0.802"/>
				<circle cx="118.532" cy="30.576" r="0.802"/>
				<circle cx="121.607" cy="30.576" r="0.803"/>
				<circle cx="124.683" cy="30.576" r="0.802"/>
				<circle cx="127.758" cy="30.576" r="0.802"/>
				<circle cx="130.834" cy="30.576" r="0.802"/>
				<circle cx="133.91" cy="30.576" r="0.802"/>
				<circle cx="136.985" cy="30.576" r="0.802"/>
				<circle cx="140.06" cy="30.576" r="0.802"/>
				<circle cx="143.136" cy="30.576" r="0.802"/>
				<circle cx="146.211" cy="30.576" r="0.803"/>
				<circle cx="149.287" cy="30.576" r="0.802"/>
				<circle cx="152.362" cy="30.576" r="0.803"/>
				<circle cx="155.438" cy="30.576" r="0.803"/>
				<circle cx="158.514" cy="30.576" r="0.803"/>
				<circle cx="161.589" cy="30.576" r="0.802"/>
				<circle cx="164.665" cy="30.576" r="0.803"/>
				<circle cx="167.74" cy="30.576" r="0.802"/>
				<circle cx="170.816" cy="30.576" r="0.802"/>
				<circle cx="173.89" cy="30.576" r="0.802"/>
				<circle cx="176.966" cy="30.576" r="0.802"/>
				<circle cx="180.042" cy="30.576" r="0.803"/>
				<circle cx="183.117" cy="30.576" r="0.802"/>
				<circle cx="186.192" cy="30.576" r="0.803"/>
				<circle cx="189.268" cy="30.576" r="0.803"/>
				<circle cx="192.344" cy="30.576" r="0.803"/>
				<circle cx="195.419" cy="30.576" r="0.802"/>
				<circle cx="198.494" cy="30.576" r="0.802"/>
				<circle cx="201.57" cy="30.576" r="0.802"/>
				<circle cx="204.645" cy="30.576" r="0.803"/>
				<circle cx="207.721" cy="30.576" r="0.803"/>
			</g>
		</g>
		<circle cx="37.475" cy="27.968" r="2.908"/>
		<circle cx="47.502" cy="27.968" r="2.908"/>
		<circle fill="#414042" cx="235.662" cy="25.261" r="8.792"/>
		<linearGradient id="SVGID_7_" gradientUnits="userSpaceOnUse" x1="4.0117" y1="516.335" x2="269.9575" y2="516.335">
			<stop  offset="0" style="stop-color:#F6F6F6"/>
			<stop  offset="0.6479" style="stop-color:#EDEEEE"/>
			<stop  offset="1" style="stop-color:#E6E7E8"/>
		</linearGradient>
		<path fill="url(#SVGID_7_)" d="M136.984,533.717c-11.96,0-83.865,0-102.52,0c-25.682,0-30.453-13.439-30.453-34.764h265.946
			c0,21.324-4.771,34.764-30.453,34.764C220.852,533.717,148.946,533.717,136.984,533.717"/>
		<g>
			<g>
				<circle cx="66.249" cy="508.982" r="0.802"/>
				<circle cx="69.324" cy="508.982" r="0.802"/>
				<circle cx="72.4" cy="508.982" r="0.802"/>
				<circle cx="75.475" cy="508.982" r="0.802"/>
				<circle cx="78.551" cy="508.982" r="0.802"/>
				<circle cx="81.626" cy="508.982" r="0.803"/>
				<circle cx="84.702" cy="508.982" r="0.802"/>
				<circle cx="87.777" cy="508.982" r="0.802"/>
				<circle cx="90.853" cy="508.982" r="0.802"/>
				<circle cx="93.928" cy="508.982" r="0.803"/>
				<circle cx="97.003" cy="508.982" r="0.802"/>
				<circle cx="100.079" cy="508.982" r="0.802"/>
				<circle cx="103.155" cy="508.982" r="0.802"/>
				<circle cx="106.23" cy="508.982" r="0.802"/>
				<circle cx="109.305" cy="508.982" r="0.802"/>
				<circle cx="112.381" cy="508.982" r="0.803"/>
				<circle cx="115.457" cy="508.982" r="0.802"/>
				<circle cx="118.532" cy="508.982" r="0.802"/>
				<circle cx="121.607" cy="508.982" r="0.803"/>
				<circle cx="124.683" cy="508.982" r="0.802"/>
				<circle cx="127.758" cy="508.982" r="0.802"/>
				<circle cx="130.834" cy="508.982" r="0.802"/>
				<circle cx="133.91" cy="508.982" r="0.802"/>
				<circle cx="136.985" cy="508.982" r="0.802"/>
				<circle cx="140.06" cy="508.982" r="0.802"/>
				<circle cx="143.136" cy="508.982" r="0.802"/>
				<circle cx="146.211" cy="508.982" r="0.803"/>
				<circle cx="149.287" cy="508.982" r="0.802"/>
				<circle cx="152.362" cy="508.982" r="0.803"/>
				<circle cx="155.438" cy="508.982" r="0.803"/>
				<circle cx="158.514" cy="508.982" r="0.803"/>
				<circle cx="161.589" cy="508.982" r="0.802"/>
				<circle cx="164.665" cy="508.982" r="0.803"/>
				<circle cx="167.74" cy="508.982" r="0.802"/>
				<circle cx="170.816" cy="508.982" r="0.802"/>
				<circle cx="173.89" cy="508.982" r="0.802"/>
				<circle cx="176.966" cy="508.982" r="0.802"/>
				<circle cx="180.042" cy="508.982" r="0.803"/>
				<circle cx="183.117" cy="508.982" r="0.802"/>
				<circle cx="186.192" cy="508.982" r="0.803"/>
				<circle cx="189.268" cy="508.982" r="0.803"/>
				<circle cx="192.344" cy="508.982" r="0.803"/>
				<circle cx="195.419" cy="508.982" r="0.802"/>
				<circle cx="198.494" cy="508.982" r="0.802"/>
				<circle cx="201.57" cy="508.982" r="0.802"/>
				<circle cx="204.645" cy="508.982" r="0.803"/>
				<circle cx="207.721" cy="508.982" r="0.803"/>
			</g>
			<g>
				<circle cx="66.249" cy="512.393" r="0.802"/>
				<circle cx="69.324" cy="512.393" r="0.802"/>
				<circle cx="72.4" cy="512.393" r="0.802"/>
				<circle cx="75.475" cy="512.393" r="0.802"/>
				<circle cx="78.551" cy="512.393" r="0.802"/>
				<circle cx="81.626" cy="512.393" r="0.803"/>
				<circle cx="84.702" cy="512.393" r="0.802"/>
				<circle cx="87.777" cy="512.393" r="0.802"/>
				<circle cx="90.853" cy="512.393" r="0.802"/>
				<circle cx="93.928" cy="512.393" r="0.803"/>
				<circle cx="97.003" cy="512.393" r="0.802"/>
				<circle cx="100.079" cy="512.393" r="0.802"/>
				<circle cx="103.155" cy="512.393" r="0.802"/>
				<circle cx="106.23" cy="512.393" r="0.802"/>
				<circle cx="109.305" cy="512.393" r="0.802"/>
				<circle cx="112.381" cy="512.393" r="0.803"/>
				<circle cx="115.457" cy="512.393" r="0.802"/>
				<circle cx="118.532" cy="512.393" r="0.802"/>
				<circle cx="121.607" cy="512.393" r="0.803"/>
				<circle cx="124.683" cy="512.393" r="0.802"/>
				<circle cx="127.758" cy="512.393" r="0.802"/>
				<circle cx="130.834" cy="512.393" r="0.802"/>
				<circle cx="133.91" cy="512.393" r="0.802"/>
				<circle cx="136.985" cy="512.393" r="0.802"/>
				<circle cx="140.06" cy="512.393" r="0.802"/>
				<circle cx="143.136" cy="512.393" r="0.802"/>
				<circle cx="146.211" cy="512.393" r="0.803"/>
				<circle cx="149.287" cy="512.393" r="0.802"/>
				<circle cx="152.362" cy="512.393" r="0.803"/>
				<circle cx="155.438" cy="512.393" r="0.803"/>
				<circle cx="158.514" cy="512.393" r="0.803"/>
				<circle cx="161.589" cy="512.393" r="0.802"/>
				<circle cx="164.665" cy="512.393" r="0.803"/>
				<circle cx="167.74" cy="512.393" r="0.802"/>
				<circle cx="170.816" cy="512.393" r="0.802"/>
				<circle cx="173.89" cy="512.393" r="0.802"/>
				<circle cx="176.966" cy="512.393" r="0.802"/>
				<circle cx="180.042" cy="512.393" r="0.803"/>
				<circle cx="183.117" cy="512.393" r="0.802"/>
				<circle cx="186.192" cy="512.393" r="0.803"/>
				<circle cx="189.268" cy="512.393" r="0.803"/>
				<circle cx="192.344" cy="512.393" r="0.803"/>
				<circle cx="195.419" cy="512.393" r="0.802"/>
				<circle cx="198.494" cy="512.393" r="0.802"/>
				<circle cx="201.57" cy="512.393" r="0.802"/>
				<circle cx="204.645" cy="512.393" r="0.803"/>
				<circle cx="207.721" cy="512.393" r="0.803"/>
			</g>
			<g>
				<circle cx="66.249" cy="515.801" r="0.802"/>
				<circle cx="69.324" cy="515.801" r="0.802"/>
				<circle cx="72.4" cy="515.801" r="0.802"/>
				<circle cx="75.475" cy="515.801" r="0.802"/>
				<circle cx="78.551" cy="515.801" r="0.802"/>
				<circle cx="81.626" cy="515.801" r="0.803"/>
				<circle cx="84.702" cy="515.801" r="0.802"/>
				<circle cx="87.777" cy="515.801" r="0.802"/>
				<circle cx="90.853" cy="515.801" r="0.802"/>
				<circle cx="93.928" cy="515.801" r="0.803"/>
				<circle cx="97.003" cy="515.801" r="0.802"/>
				<circle cx="100.079" cy="515.801" r="0.802"/>
				<circle cx="103.155" cy="515.801" r="0.802"/>
				<circle cx="106.23" cy="515.801" r="0.802"/>
				<circle cx="109.305" cy="515.801" r="0.802"/>
				<circle cx="112.381" cy="515.801" r="0.803"/>
				<circle cx="115.457" cy="515.801" r="0.802"/>
				<circle cx="118.532" cy="515.801" r="0.802"/>
				<circle cx="121.607" cy="515.801" r="0.803"/>
				<circle cx="124.683" cy="515.801" r="0.802"/>
				<circle cx="127.758" cy="515.801" r="0.802"/>
				<circle cx="130.834" cy="515.801" r="0.802"/>
				<circle cx="133.91" cy="515.801" r="0.802"/>
				<circle cx="136.985" cy="515.801" r="0.802"/>
				<circle cx="140.06" cy="515.801" r="0.802"/>
				<circle cx="143.136" cy="515.801" r="0.802"/>
				<circle cx="146.211" cy="515.801" r="0.803"/>
				<circle cx="149.287" cy="515.801" r="0.802"/>
				<circle cx="152.362" cy="515.801" r="0.803"/>
				<circle cx="155.438" cy="515.801" r="0.803"/>
				<circle cx="158.514" cy="515.801" r="0.803"/>
				<circle cx="161.589" cy="515.801" r="0.802"/>
				<circle cx="164.665" cy="515.801" r="0.803"/>
				<circle cx="167.74" cy="515.801" r="0.802"/>
				<circle cx="170.816" cy="515.801" r="0.802"/>
				<circle cx="173.89" cy="515.801" r="0.802"/>
				<circle cx="176.966" cy="515.801" r="0.802"/>
				<circle cx="180.042" cy="515.801" r="0.803"/>
				<circle cx="183.117" cy="515.801" r="0.802"/>
				<circle cx="186.192" cy="515.801" r="0.803"/>
				<circle cx="189.268" cy="515.801" r="0.803"/>
				<circle cx="192.344" cy="515.801" r="0.803"/>
				<circle cx="195.419" cy="515.801" r="0.802"/>
				<circle cx="198.494" cy="515.801" r="0.802"/>
				<circle cx="201.57" cy="515.801" r="0.802"/>
				<circle cx="204.645" cy="515.801" r="0.803"/>
				<circle cx="207.721" cy="515.801" r="0.803"/>
			</g>
			<g>
				<circle cx="66.249" cy="519.211" r="0.802"/>
				<circle cx="69.324" cy="519.211" r="0.802"/>
				<circle cx="72.4" cy="519.211" r="0.802"/>
				<circle cx="75.475" cy="519.211" r="0.802"/>
				<circle cx="78.551" cy="519.211" r="0.802"/>
				<circle cx="81.626" cy="519.211" r="0.803"/>
				<circle cx="84.702" cy="519.211" r="0.802"/>
				<circle cx="87.777" cy="519.211" r="0.802"/>
				<circle cx="90.853" cy="519.211" r="0.802"/>
				<circle cx="93.928" cy="519.211" r="0.803"/>
				<circle cx="97.003" cy="519.211" r="0.802"/>
				<circle cx="100.079" cy="519.211" r="0.802"/>
				<circle cx="103.155" cy="519.211" r="0.802"/>
				<circle cx="106.23" cy="519.211" r="0.802"/>
				<circle cx="109.305" cy="519.211" r="0.802"/>
				<circle cx="112.381" cy="519.211" r="0.803"/>
				<circle cx="115.457" cy="519.211" r="0.802"/>
				<circle cx="118.532" cy="519.211" r="0.802"/>
				<circle cx="121.607" cy="519.211" r="0.803"/>
				<circle cx="124.683" cy="519.211" r="0.802"/>
				<circle cx="127.758" cy="519.211" r="0.802"/>
				<circle cx="130.834" cy="519.211" r="0.802"/>
				<circle cx="133.91" cy="519.211" r="0.802"/>
				<circle cx="136.985" cy="519.211" r="0.802"/>
				<circle cx="140.06" cy="519.211" r="0.802"/>
				<circle cx="143.136" cy="519.211" r="0.802"/>
				<circle cx="146.211" cy="519.211" r="0.803"/>
				<circle cx="149.287" cy="519.211" r="0.802"/>
				<circle cx="152.362" cy="519.211" r="0.803"/>
				<circle cx="155.438" cy="519.211" r="0.803"/>
				<circle cx="158.514" cy="519.211" r="0.803"/>
				<circle cx="161.589" cy="519.211" r="0.802"/>
				<circle cx="164.665" cy="519.211" r="0.803"/>
				<circle cx="167.74" cy="519.211" r="0.802"/>
				<circle cx="170.816" cy="519.211" r="0.802"/>
				<circle cx="173.89" cy="519.211" r="0.802"/>
				<circle cx="176.966" cy="519.211" r="0.802"/>
				<circle cx="180.042" cy="519.211" r="0.803"/>
				<circle cx="183.117" cy="519.211" r="0.802"/>
				<circle cx="186.192" cy="519.211" r="0.803"/>
				<circle cx="189.268" cy="519.211" r="0.803"/>
				<circle cx="192.344" cy="519.211" r="0.803"/>
				<circle cx="195.419" cy="519.211" r="0.802"/>
				<circle cx="198.494" cy="519.211" r="0.802"/>
				<circle cx="201.57" cy="519.211" r="0.802"/>
				<circle cx="204.645" cy="519.211" r="0.803"/>
				<circle cx="207.721" cy="519.211" r="0.803"/>
			</g>
		</g>
		<path fill="#1A1A1A" d="M79.595,0.044C78.966,0.059,43.028-0.03,41.92,0.01c-0.776,0.029-1.218,0.701-1.414,1.235h40.379
			C80.684,0.673,80.271,0.029,79.595,0.044z"/>
		<g>
			<linearGradient id="SVGID_8_" gradientUnits="userSpaceOnUse" x1="60.707" y1="2.085" x2="60.707" y2="1.6523">
				<stop  offset="0.0123" style="stop-color:#EDEDEE"/>
				<stop  offset="0.0948" style="stop-color:#DCDDDE"/>
				<stop  offset="0.4214" style="stop-color:#9EA0A2"/>
				<stop  offset="0.6916" style="stop-color:#747678"/>
				<stop  offset="0.8918" style="stop-color:#58595B"/>
				<stop  offset="1" style="stop-color:#4D4D4F"/>
			</linearGradient>
			<path fill="url(#SVGID_8_)" d="M63.312,2.085c-9.868,0-20.817-0.006-21.388-0.016l-0.147-0.002
				C41.347,2.06,40.9,2.053,40.804,1.992C40.807,1.99,40.79,1.94,40.79,1.796c0-0.02,0.005-0.07,0.021-0.144h39.771
				c0.034,0.144,0.046,0.254,0.044,0.307c-0.065,0.088-0.421,0.101-0.656,0.11C79.7,2.079,73.318,2.085,63.312,2.085z"/>
			<path fill="#414042" d="M80.885,1.246H40.506c-0.084,0.23-0.123,0.436-0.123,0.551c0,0.684,0.311,0.659,1.535,0.68
				c0.573,0.009,11.424,0.016,21.395,0.016c8.499,0,16.357-0.004,16.671-0.016c0.683-0.025,1.037-0.047,1.048-0.504
				C81.036,1.817,80.988,1.542,80.885,1.246L80.885,1.246z"/>
		</g>
	</g>
</g>
</svg>
