<svg preserveAspectRatio="xMinYMin meet" viewBox="0 0 3234.375 6198.113" width="100%" height="100%" version="1.1" id="Layer_1" xmlns="http://www.w3.org/2000/svg" xmlns:xlink="http://www.w3.org/1999/xlink" x="0px" y="0px" enable-background="new 0 0 3234.375 6198.113"
	 xml:space="preserve">
<g>
	<g>
		
			<radialGradient id="SVGID_1_" cx="8660.7383" cy="167795.8594" r="3381.3669" gradientTransform="matrix(0.4607 0 0 0.0231 -2355.1572 2243.8889)" gradientUnits="userSpaceOnUse">
			<stop  offset="0.0061" style="stop-color:#253138"/>
			<stop  offset="1" style="stop-color:#FFFFFF"/>
		</radialGradient>
		<path opacity="0.7" fill="url(#SVGID_1_)" d="M3192.024,6119.97c0,43.16-57.32,78.144-1557.176,78.144
			c-1544.001,0-1557.184-34.983-1557.184-78.144c0-43.153,38.978-78.137,1557.184-78.137
			C3124.389,6041.833,3192.024,6076.816,3192.024,6119.97z"/>
	</g>
	<g>
		<linearGradient id="SVGID_2_" gradientUnits="userSpaceOnUse" x1="81.9736" y1="1948.7451" x2="81.9736" y2="924.0088">
			<stop  offset="0.0061" style="stop-color:#A2ACB4"/>
			<stop  offset="0.5521" style="stop-color:#FFFFFF"/>
			<stop  offset="1" style="stop-color:#A2ACB4"/>
		</linearGradient>
		<path fill="url(#SVGID_2_)" d="M163.948,1913.613c0,19.322-15.804,35.132-35.126,35.132H35.128
			c-19.317,0-35.128-15.81-35.128-35.132V959.145c0-19.325,15.811-35.136,35.128-35.136h93.693
			c19.322,0,35.126,15.811,35.126,35.136V1913.613z"/>
		<linearGradient id="SVGID_3_" gradientUnits="userSpaceOnUse" x1="3168.4995" y1="1904.8291" x2="3168.4995" y2="1383.6748">
			<stop  offset="0.0061" style="stop-color:#A2ACB4"/>
			<stop  offset="0.5521" style="stop-color:#FFFFFF"/>
			<stop  offset="1" style="stop-color:#A2ACB4"/>
		</linearGradient>
		<path fill="url(#SVGID_3_)" d="M3102.624,1869.694c0,19.322,15.811,35.135,35.125,35.135h61.49
			c19.322,0,35.137-15.812,35.137-35.135v-450.884c0-19.325-15.814-35.136-35.137-35.136h-61.49
			c-19.314,0-35.125,15.811-35.125,35.136V1869.694z"/>
		<linearGradient id="SVGID_4_" gradientUnits="userSpaceOnUse" x1="64.9907" y1="3060.7842" x2="3178.1099" y2="3060.7842">
			<stop  offset="0.0061" style="stop-color:#D2D6D9"/>
			<stop  offset="0.5031" style="stop-color:#EDEEF0"/>
			<stop  offset="1" style="stop-color:#D2D6D9"/>
		</linearGradient>
		<path fill="url(#SVGID_4_)" d="M3178.11,617.832c0-226.023-63.572-381.017-194.324-473.836
			c-113.158-80.349-258.695-101.07-386.232-114.193C2436.34,13.218,1882.651,0,1621.545,0l0,0
			C1360.43,0,806.76,13.218,645.534,29.803C518.006,42.926,372.473,63.647,259.31,143.994
			C128.55,236.815,64.995,391.809,64.995,617.832l-0.004,4885.901c0,226.021,63.564,381.016,194.319,473.836
			c113.163,80.348,258.696,101.071,386.233,114.192c161.217,16.584,714.902,29.807,976.002,29.807l0,0
			c261.117,0,814.795-13.223,976.016-29.807c127.529-13.121,273.066-33.845,386.225-114.192
			c130.766-92.82,194.32-247.815,194.32-473.836L3178.11,617.832z"/>
		<path fill="#020202" d="M1621.545,29.197c-264.172,0-816.701,13.569-973.022,29.65c-123.834,12.741-264.94,32.722-372.31,108.955
			C153.728,254.745,94.191,401.951,94.191,617.832l-0.004,4885.901c0,215.869,59.54,363.073,182.026,450.027
			c107.383,76.242,248.488,96.221,372.315,108.955c156.307,16.083,708.837,29.654,973.017,29.654
			c264.182,0,816.721-13.571,973.031-29.654c123.822-12.734,264.926-32.713,372.305-108.95
			c122.488-86.951,182.027-234.152,182.027-450.032l0.004-4885.901c0-215.873-59.543-363.077-182.023-450.026
			c-107.369-76.236-248.49-96.217-372.328-108.958C2438.256,42.767,1885.727,29.197,1621.545,29.197z"/>
		<path fill="#1E1E1E" d="M1621.545,48.662c-263.786,0-815.247,13.524-971.031,29.548C529.149,90.697,391,110.173,287.48,183.675
			c-116.965,83.027-173.823,225.042-173.823,434.157l-0.006,4885.901c0,209.104,56.86,351.116,173.829,434.153
			c103.525,73.512,241.674,92.981,363.044,105.466c155.746,16.027,707.217,29.552,971.021,29.552
			c263.805,0,815.281-13.524,971.039-29.552c121.357-12.484,259.502-31.954,363.025-105.459
			c116.975-83.035,173.836-225.048,173.836-434.16l0.004-4885.901c0-209.106-56.861-351.119-173.828-434.155
			c-103.521-73.504-241.68-92.979-363.049-105.467C2436.801,62.187,1885.342,48.662,1621.545,48.662z"/>
		<g>
			<path fill="#020202" d="M2195.151,189.08c0,31.141-25.238,56.387-56.393,56.387c-31.146,0-56.389-25.246-56.389-56.387
				c0-31.143,25.242-56.389,56.389-56.389C2169.913,132.691,2195.151,157.938,2195.151,189.08z"/>
			<path fill="#020202" d="M2348.014,189.08c0,31.141-25.238,56.387-56.381,56.387c-31.154,0-56.389-25.246-56.389-56.387
				c0-31.143,25.234-56.389,56.389-56.389C2322.776,132.691,2348.014,157.938,2348.014,189.08z"/>
			<path fill="#020202" d="M1217.87,189.08c0,31.141-25.237,56.387-56.369,56.387c-31.145,0-56.397-25.246-56.397-56.387
				c0-31.143,25.253-56.389,56.397-56.389C1192.633,132.691,1217.87,157.938,1217.87,189.08z"/>
			<path fill="#161616" d="M2742.231,245.119c0,40.189-32.58,72.771-72.773,72.771c-40.186,0-72.779-32.581-72.779-72.771
				c0-40.188,32.594-72.767,72.779-72.767C2709.651,172.353,2742.231,204.931,2742.231,245.119z"/>
			<path fill="#020202" d="M2700.204,245.119c0,16.978-13.762,30.744-30.746,30.744c-16.975,0-30.746-13.767-30.746-30.744
				c0-16.977,13.771-30.741,30.746-30.741C2686.442,214.378,2700.204,228.143,2700.204,245.119z"/>
			<g>
				<path fill="#1E1E1E" d="M2040.903,5824.045c0,48.312-39.527,87.839-87.84,87.839h-575.178c-48.31,0-87.843-39.527-87.843-87.839
					v-28.095c0-48.31,39.533-87.836,87.843-87.836h575.178c48.312,0,87.84,39.526,87.84,87.836V5824.045z"/>
				<g>
					<path fill="#020202" d="M1953.063,5918.473h-575.178c-52.078,0-94.435-42.362-94.435-94.428v-28.095
						c0-52.062,42.356-94.424,94.435-94.424h575.178c52.064,0,94.426,42.361,94.426,94.424v28.095
						C2047.489,5876.11,2005.127,5918.473,1953.063,5918.473z M1377.885,5714.698c-44.803,0-81.252,36.449-81.252,81.252v28.095
						c0,44.805,36.449,81.253,81.252,81.253h575.178c44.803,0,81.248-36.448,81.248-81.253v-28.095
						c0-44.803-36.445-81.252-81.248-81.252H1377.885z"/>
				</g>
				<path fill="#020202" d="M1971.305,210.331c0,19.323-15.807,35.136-35.131,35.136h-629.249
					c-19.332,0-35.143-15.812-35.143-35.136v-0.478c0-19.321,15.811-35.135,35.143-35.135h629.249
					c19.324,0,35.131,15.813,35.131,35.135V210.331z"/>
			</g>
		</g>
	</g>
</g>
</svg>
