<svg preserveAspectRatio="xMinYMin meet" viewBox="0 0 3066.23 5875.889" width="100%" height="100%" version="1.1" id="Layer_1" xmlns="http://www.w3.org/2000/svg" xmlns:xlink="http://www.w3.org/1999/xlink" x="0px" y="0px" enable-background="new 0 0 3066.23 5875.889"
	 xml:space="preserve">
<g>
	<g>
		
			<radialGradient id="SVGID_1_" cx="8668.9951" cy="160836.0312" r="3205.5798" gradientTransform="matrix(0.4607 0 0 0.0231 -2460.6897 2086.4983)" gradientUnits="userSpaceOnUse">
			<stop  offset="0.0061" style="stop-color:#253138"/>
			<stop  offset="1" style="stop-color:#FFFFFF"/>
		</radialGradient>
		<path opacity="0.5" fill="url(#SVGID_1_)" d="M3009.343,5801.809c0,40.916-54.342,74.08-1476.225,74.08
			c-1463.732,0-1476.23-33.164-1476.23-74.08c0-40.91,36.951-74.076,1476.23-74.076
			C2945.222,5727.732,3009.343,5760.898,3009.343,5801.809z"/>
	</g>
	<g>
		<linearGradient id="SVGID_2_" gradientUnits="userSpaceOnUse" x1="77.7124" y1="1847.4355" x2="77.7124" y2="875.9712">
			<stop  offset="0.0061" style="stop-color:#A2ACB4"/>
			<stop  offset="0.5521" style="stop-color:#FFFFFF"/>
			<stop  offset="1" style="stop-color:#A2ACB4"/>
		</linearGradient>
		<path fill="url(#SVGID_2_)" d="M155.425,1814.129c0,18.318-14.983,33.306-33.301,33.306H33.303
			c-18.313,0-33.303-14.988-33.303-33.306V909.281c0-18.32,14.989-33.31,33.303-33.31h88.821c18.317,0,33.301,14.989,33.301,33.31
			V1814.129z"/>
		<linearGradient id="SVGID_3_" gradientUnits="userSpaceOnUse" x1="3003.7783" y1="1805.8022" x2="3003.7783" y2="1311.7412">
			<stop  offset="0.0061" style="stop-color:#A2ACB4"/>
			<stop  offset="0.5521" style="stop-color:#FFFFFF"/>
			<stop  offset="1" style="stop-color:#A2ACB4"/>
		</linearGradient>
		<path fill="url(#SVGID_3_)" d="M2941.326,1772.495c0,18.317,14.99,33.308,33.301,33.308h58.293
			c18.312,0,33.311-14.991,33.311-33.308v-427.444c0-18.321-14.998-33.31-33.311-33.31h-58.293
			c-18.311,0-33.301,14.989-33.301,33.31V1772.495z"/>
		<linearGradient id="SVGID_4_" gradientUnits="userSpaceOnUse" x1="61.6123" y1="2901.6621" x2="3012.8906" y2="2901.6621">
			<stop  offset="0.0061" style="stop-color:#D2D6D9"/>
			<stop  offset="0.5031" style="stop-color:#EDEEF0"/>
			<stop  offset="1" style="stop-color:#D2D6D9"/>
		</linearGradient>
		<path fill="url(#SVGID_4_)" d="M3012.891,585.712c0-214.273-60.268-361.208-184.223-449.202
			c-107.281-76.172-245.246-95.816-366.154-108.257C2309.684,12.53,1784.777,0,1537.248,0l0,0
			C1289.705,0,764.82,12.53,611.975,28.253c-120.898,12.44-258.865,32.084-366.146,108.255
			C121.867,224.504,61.617,371.439,61.617,585.712l-0.005,4631.895c0,214.271,60.261,361.209,184.217,449.203
			c107.28,76.172,245.247,95.816,366.153,108.259c152.838,15.72,677.737,28.255,925.266,28.255l0,0
			c247.539,0,772.436-12.535,925.273-28.255c120.9-12.442,258.865-32.087,366.146-108.259
			c123.967-87.994,184.223-234.932,184.223-449.203V585.712z"/>
		<path fill="#C5C9CB" d="M1537.248,27.679c-250.44,0-774.244,12.864-922.44,28.109C497.411,67.866,363.642,86.809,261.854,159.079
			C145.735,241.501,89.295,381.055,89.295,585.712l-0.004,4631.895c0,204.648,56.444,344.199,172.562,426.633
			c101.801,72.279,235.57,91.219,352.961,103.291c148.18,15.247,671.984,28.113,922.434,28.113
			c250.443,0,774.26-12.866,922.445-28.113c117.381-12.072,251.152-31.012,352.949-103.287
			c116.119-82.43,172.566-221.979,172.566-426.637V585.712c0-204.65-56.447-344.202-172.561-426.631
			c-101.791-72.273-235.574-91.215-352.969-103.293C2311.5,40.543,1787.691,27.679,1537.248,27.679z"/>
		<path fill="#F2F4F5" d="M1537.248,46.131c-250.074,0-772.867,12.822-920.553,28.013c-115.053,11.838-246.021,30.301-344.16,99.982
			C161.65,252.837,107.749,387.468,107.749,585.712l-0.004,4631.895c0,198.234,53.902,332.865,164.79,411.584
			c98.145,69.689,229.11,88.148,344.171,99.982c147.645,15.195,670.45,28.018,920.542,28.018
			c250.09,0,772.898-12.822,920.557-28.018c115.047-11.834,246.012-30.293,344.152-99.977
			c110.895-78.717,164.801-213.348,164.801-411.59V585.712c0-198.236-53.904-332.865-164.791-411.585
			c-98.139-69.682-229.115-88.146-344.174-99.983C2310.119,58.954,1787.328,46.131,1537.248,46.131z"/>
		<g>
			<path fill="#E6E6E5" d="M2599.67,232.376c0,38.101-30.885,68.987-68.99,68.987c-38.096,0-68.996-30.886-68.996-68.987
				c0-38.099,30.9-68.983,68.996-68.983C2568.785,163.393,2599.67,194.277,2599.67,232.376z"/>
			<g>
				<path fill="#F2F4F5" d="M1934.797,5521.268c0,45.802-37.467,83.273-83.268,83.273h-545.277
					c-45.798,0-83.276-37.472-83.276-83.273v-26.633c0-45.799,37.479-83.27,83.276-83.27h545.277
					c45.801,0,83.268,37.471,83.268,83.27V5521.268z"/>
				<g>
					<path fill="#B8C1C8" d="M1851.529,5610.785h-545.277c-49.371,0-89.524-40.16-89.524-89.518v-26.633
						c0-49.354,40.153-89.516,89.524-89.516h545.277c49.359,0,89.518,40.161,89.518,89.516v26.633
						C1941.047,5570.625,1900.889,5610.785,1851.529,5610.785z M1306.252,5417.607c-42.474,0-77.028,34.553-77.028,77.027v26.633
						c0,42.477,34.555,77.029,77.028,77.029h545.277c42.475,0,77.023-34.553,77.023-77.029v-26.633
						c0-42.475-34.549-77.027-77.023-77.027H1306.252z"/>
				</g>
				<path fill="#8A9399" d="M1868.824,199.396c0,18.318-14.986,33.31-33.305,33.31h-596.535c-18.33,0-33.316-14.991-33.316-33.31
					v-0.453c0-18.317,14.986-33.308,33.316-33.308h596.535c18.318,0,33.305,14.991,33.305,33.308V199.396z"/>
			</g>
			<path fill="#8A9399" d="M2081.031,179.25c0,29.521-23.926,53.456-53.463,53.456c-29.523,0-53.455-23.934-53.455-53.456
				c0-29.524,23.932-53.458,53.455-53.458C2057.105,125.792,2081.031,149.727,2081.031,179.25z"/>
			<path fill="#8A9399" d="M2225.947,179.25c0,29.521-23.93,53.456-53.449,53.456c-29.535,0-53.457-23.934-53.457-53.456
				c0-29.524,23.922-53.458,53.457-53.458C2202.018,125.792,2225.947,149.727,2225.947,179.25z"/>
			<path fill="#8A9399" d="M1154.559,179.25c0,29.521-23.927,53.456-53.444,53.456c-29.521,0-53.462-23.934-53.462-53.456
				c0-29.524,23.94-53.458,53.462-53.458C1130.632,125.792,1154.559,149.727,1154.559,179.25z"/>
			<path fill="#8A9399" d="M2559.828,232.376c0,16.095-13.047,29.146-29.148,29.146c-16.092,0-29.15-13.051-29.15-29.146
				c0-16.094,13.059-29.143,29.15-29.143C2546.781,203.233,2559.828,216.282,2559.828,232.376z"/>
		</g>
	</g>
</g>
</svg>
